<?xml version="1.0" standalone="no"?>
<!DOCTYPE svg PUBLIC "-//W3C//DTD SVG 20010904//EN"
 "http://www.w3.org/TR/2001/REC-SVG-20010904/DTD/svg10.dtd">
<svg version="1.0" xmlns="http://www.w3.org/2000/svg"
 width="260.000000pt" height="260.000000pt" viewBox="0 0 260.000000 260.000000"
 preserveAspectRatio="xMidYMid meet">
<metadata>
Created by potrace 1.14, written by Peter Selinger 2001-2017
</metadata>
<g transform="translate(0.000000,260.000000) scale(0.100000,-0.100000)"
fill="#000000" stroke="none">
<path d="M150 1305 l0 -606 143 3 142 3 3 245 c2 135 -2 328 -7 429 -6 102 -9
186 -7 188 1 2 56 -185 121 -414 65 -230 122 -426 127 -436 8 -16 24 -17 160
-15 l151 3 118 420 c65 231 120 427 121 435 2 8 2 -182 0 -422 l-5 -438 152 0
151 0 0 605 0 605 -217 -2 -218 -3 -118 -410 c-136 -472 -126 -440 -133 -432
-3 3 -61 194 -129 424 l-123 418 -216 3 -216 2 0 -605z"/>
<path d="M1927 1640 c-101 -26 -204 -103 -250 -189 -41 -75 -57 -136 -64 -241
-10 -166 26 -286 114 -380 101 -109 213 -145 428 -137 116 4 153 9 215 31 41
14 76 26 78 26 5 0 1 230 -4 230 -4 0 -39 -12 -78 -26 -56 -21 -94 -28 -181
-31 -100 -4 -114 -2 -155 19 -49 25 -90 77 -90 114 l0 24 286 0 286 0 -4 138
c-6 177 -25 231 -112 318 -86 86 -142 106 -306 110 -69 2 -142 -1 -163 -6z
m242 -236 c25 -21 51 -74 51 -106 0 -5 -63 -8 -140 -8 l-140 0 6 28 c10 41 41
87 66 100 13 6 46 11 75 11 41 1 57 -4 82 -25z"/>
</g>
</svg>
